<svg width="60" height="60" viewBox="0 0 60 60" fill="none" xmlns="http://www.w3.org/2000/svg">
<path d="M47.5 5H22.5C19.7425 5 17.5 7.2425 17.5 10V23.965L5.73246 35.7325C5.38293 36.0821 5.14492 36.5275 5.0485 37.0124C4.95208 37.4973 5.00159 37.9999 5.19076 38.4566C5.37994 38.9134 5.70028 39.3038 6.11131 39.5785C6.52233 39.8532 7.00558 39.9999 7.49996 40V52.5C7.49996 53.163 7.76335 53.7989 8.23219 54.2678C8.70103 54.7366 9.33691 55 9.99996 55H50C50.663 55 51.2989 54.7366 51.7677 54.2678C52.2366 53.7989 52.5 53.163 52.5 52.5V10C52.5 7.2425 50.2575 5 47.5 5ZM27.5 50H12.5V36.035L20 28.535L27.5 36.035V50ZM47.5 50H32.5V40C32.9949 40.0011 33.4789 39.8551 33.8907 39.5806C34.3026 39.3061 34.6235 38.9154 34.8129 38.4582C35.0023 38.0009 35.0515 37.4977 34.9544 37.0124C34.8573 36.5272 34.6182 36.0817 34.2675 35.7325L22.5 23.965V10H47.5V50Z" fill="black"/>
<path d="M27.5 15H32.5V20H27.5V15ZM37.5 15H42.5V20H37.5V15ZM37.5 25.0775H42.5V30H37.5V25.0775ZM37.5 35H42.5V40H37.5V35ZM17.5 37.5H22.5V42.5H17.5V37.5Z" fill="black"/>
</svg>
