<svg width="70" height="70" viewBox="0 0 70 70" fill="none" xmlns="http://www.w3.org/2000/svg">
<path d="M34.9969 21.5163C31.42 21.5163 27.9896 22.9372 25.4604 25.4664C22.9312 27.9956 21.5103 31.426 21.5103 35.0029C21.5103 38.5798 22.9312 42.0102 25.4604 44.5394C27.9896 47.0687 31.42 48.4896 34.9969 48.4896C38.5738 48.4896 42.0042 47.0687 44.5334 44.5394C47.0627 42.0102 48.4836 38.5798 48.4836 35.0029C48.4836 31.426 47.0627 27.9956 44.5334 25.4664C42.0042 22.9372 38.5738 21.5163 34.9969 21.5163ZM34.9969 43.7617C32.6732 43.7617 30.4446 42.8386 28.8015 41.1954C27.1584 39.5523 26.2353 37.3237 26.2353 35C26.2353 32.6763 27.1584 30.4477 28.8015 28.8046C30.4446 27.1614 32.6732 26.2383 34.9969 26.2383C37.3207 26.2383 39.5492 27.1614 41.1924 28.8046C42.8355 30.4477 43.7586 32.6763 43.7586 35C43.7586 37.3237 42.8355 39.5523 41.1924 41.1954C39.5492 42.8386 37.3207 43.7617 34.9969 43.7617Z" fill="black"/>
<path d="M49.0177 24.1646C50.7542 24.1646 52.1619 22.7569 52.1619 21.0204C52.1619 19.2839 50.7542 17.8763 49.0177 17.8763C47.2812 17.8763 45.8735 19.2839 45.8735 21.0204C45.8735 22.7569 47.2812 24.1646 49.0177 24.1646Z" fill="black"/>
<path d="M59.888 17.8238C59.2127 16.0801 58.1809 14.4967 56.8585 13.1748C55.5361 11.8529 53.9523 10.8216 52.2084 10.1471C50.1677 9.38105 48.0118 8.96683 45.8325 8.92209C43.0238 8.79959 42.1342 8.76459 35.0117 8.76459C27.8892 8.76459 26.9763 8.76459 24.1909 8.92209C22.0132 8.96454 19.8589 9.37884 17.8209 10.1471C16.0765 10.8208 14.4923 11.8518 13.1698 13.1738C11.8472 14.4958 10.8157 16.0797 10.1413 17.8238C9.37508 19.8643 8.96182 22.0204 8.91919 24.1996C8.79378 27.0054 8.75586 27.895 8.75586 35.0204C8.75586 42.1429 8.75586 43.05 8.91919 45.8413C8.96294 48.0229 9.37419 50.1754 10.1413 52.22C10.8176 53.9635 11.8501 55.5467 13.173 56.8685C14.4958 58.1903 16.0798 59.2217 17.8238 59.8967C19.858 60.6935 22.0132 61.1374 24.1967 61.2092C27.0054 61.3317 27.895 61.3696 35.0175 61.3696C42.14 61.3696 43.0529 61.3696 45.8384 61.2092C48.0174 61.1648 50.1732 60.7516 52.2142 59.9871C53.9577 59.311 55.541 58.2789 56.8633 56.9566C58.1855 55.6343 59.2177 54.051 59.8938 52.3075C60.6609 50.2658 61.0721 48.1133 61.1159 45.9317C61.2413 43.1258 61.2792 42.2363 61.2792 35.1108C61.2792 27.9854 61.2792 27.0813 61.1159 24.29C61.0819 22.08 60.6665 19.8924 59.888 17.8238ZM56.3354 45.6254C56.3166 47.3063 56.0098 48.9715 55.4284 50.5487C54.9904 51.6829 54.3198 52.7129 53.4598 53.5724C52.5998 54.4319 51.5695 55.1018 50.435 55.5392C48.8753 56.118 47.2277 56.4248 45.5642 56.4463C42.7934 56.5746 42.0117 56.6067 34.9067 56.6067C27.7959 56.6067 27.0696 56.6067 24.2463 56.4463C22.5836 56.4259 20.9368 56.119 19.3784 55.5392C18.2399 55.1045 17.2054 54.4358 16.3418 53.5761C15.4781 52.7165 14.8045 51.6851 14.3646 50.5487C13.7913 48.9885 13.4847 47.3429 13.4575 45.6808C13.3321 42.91 13.3029 42.1283 13.3029 35.0233C13.3029 27.9154 13.3029 27.1892 13.4575 24.3629C13.4764 22.683 13.7832 21.0187 14.3646 19.4425C15.2542 17.1413 17.0771 15.33 19.3784 14.4492C20.9376 13.8721 22.5839 13.5653 24.2463 13.5421C27.02 13.4167 27.7988 13.3817 34.9067 13.3817C42.0146 13.3817 42.7438 13.3817 45.5642 13.5421C47.2279 13.5621 48.8757 13.869 50.435 14.4492C51.5694 14.8875 52.5996 15.5581 53.4595 16.418C54.3194 17.2779 54.9901 18.3081 55.4284 19.4425C56.0016 21.0028 56.3083 22.6484 56.3354 24.3104C56.4609 27.0842 56.4929 27.8629 56.4929 34.9708C56.4929 42.0758 56.493 42.84 56.3675 45.6283H56.3354V45.6254Z" fill="black"/>
</svg>
