<svg width="100" height="100" viewBox="0 0 100 100" fill="none" xmlns="http://www.w3.org/2000/svg">
<circle cx="50" cy="50" r="49.5" fill="#00C2CB" stroke="black" stroke-dasharray="5 5"/>
<path d="M19.6562 36.566C18.7443 36.566 17.9943 36.35 17.4062 35.918C16.8303 35.486 16.4043 34.928 16.1283 34.244C15.8643 33.56 15.7323 32.852 15.7323 32.12C15.7323 31.172 15.8763 30.224 16.1643 29.276C16.4523 28.316 16.8483 27.404 17.3523 26.54C17.8683 25.676 18.4503 24.908 19.0983 24.236C19.7463 23.564 20.4363 23.036 21.1683 22.652C21.9123 22.256 22.6503 22.058 23.3823 22.058C23.9103 22.058 24.3543 22.184 24.7143 22.436C25.0743 22.676 25.2543 23.096 25.2543 23.696C25.2543 24.056 25.1883 24.458 25.0563 24.902C24.9363 25.346 24.7683 25.778 24.5523 26.198C24.3483 26.606 24.1143 26.942 23.8503 27.206C23.5863 27.47 23.3163 27.602 23.0403 27.602C22.9203 27.602 22.7943 27.56 22.6623 27.476C22.5303 27.392 22.4103 27.248 22.3023 27.044C22.4823 26.84 22.6863 26.594 22.9143 26.306C23.1423 26.006 23.3583 25.694 23.5623 25.37C23.7663 25.034 23.9343 24.71 24.0663 24.398C24.1983 24.074 24.2643 23.792 24.2643 23.552C24.2643 23.336 24.2043 23.168 24.0843 23.048C23.9643 22.916 23.7543 22.85 23.4543 22.85C22.9263 22.85 22.3803 23.048 21.8163 23.444C21.2643 23.84 20.7303 24.374 20.2143 25.046C19.6983 25.706 19.2303 26.45 18.8103 27.278C18.4023 28.094 18.0783 28.94 17.8383 29.816C17.5983 30.68 17.4783 31.502 17.4783 32.282C17.4783 32.858 17.5623 33.41 17.7303 33.938C17.9103 34.454 18.1923 34.874 18.5763 35.198C18.9603 35.534 19.4643 35.702 20.0883 35.702C20.7363 35.702 21.3783 35.522 22.0143 35.162C22.6623 34.802 23.2503 34.328 23.7783 33.74C24.3183 33.152 24.7503 32.522 25.0742 31.85L25.5423 32.156C25.1223 32.96 24.6183 33.698 24.0303 34.37C23.4423 35.03 22.7763 35.558 22.0323 35.954C21.3003 36.362 20.5083 36.566 19.6562 36.566ZM25.8364 35.576C25.2964 35.576 24.9244 35.396 24.7204 35.036C24.5284 34.688 24.4324 34.304 24.4324 33.884C24.4324 33.5 24.4924 33.11 24.6124 32.714C24.7324 32.306 24.8944 31.928 25.0984 31.58C25.3144 31.232 25.5484 30.956 25.8004 30.752C26.0644 30.536 26.3284 30.428 26.5924 30.428C26.6764 30.428 26.7724 30.446 26.8804 30.482C27.0004 30.506 27.0844 30.548 27.1324 30.608C26.9884 30.788 26.8384 31.01 26.6824 31.274C26.5384 31.538 26.4004 31.82 26.2684 32.12C26.1484 32.408 26.0524 32.702 25.9804 33.002C25.9084 33.302 25.8724 33.578 25.8724 33.83C25.8724 34.07 25.9144 34.268 25.9984 34.424C26.0944 34.58 26.2564 34.658 26.4844 34.658C26.7124 34.658 26.9824 34.532 27.2944 34.28C27.6184 34.016 27.9244 33.716 28.2124 33.38C27.8284 33.032 27.5524 32.654 27.3844 32.246C27.2164 31.826 27.1324 31.322 27.1324 30.734C27.1324 30.482 27.1924 30.194 27.3124 29.87C27.4444 29.546 27.6484 29.264 27.9244 29.024C28.2124 28.784 28.5964 28.664 29.0764 28.664C29.5924 28.664 29.9524 28.808 30.1564 29.096C30.3724 29.384 30.4804 29.726 30.4804 30.122C30.4804 30.566 30.3604 31.064 30.1204 31.616C29.8924 32.168 29.6164 32.69 29.2924 33.182C29.4364 33.254 29.6044 33.29 29.7964 33.29C29.9764 33.29 30.1924 33.248 30.4444 33.164C30.6964 33.08 30.9424 32.942 31.1824 32.75C31.4224 32.546 31.6144 32.276 31.7584 31.94L32.0824 32.174C31.8184 32.786 31.4644 33.236 31.0204 33.524C30.5884 33.8 30.1624 33.938 29.7424 33.938C29.5864 33.938 29.4304 33.926 29.2744 33.902C29.1184 33.866 28.9744 33.824 28.8424 33.776C28.4344 34.256 27.9664 34.676 27.4384 35.036C26.9104 35.396 26.3764 35.576 25.8364 35.576ZM28.6804 32.804C28.9684 32.384 29.2144 31.934 29.4184 31.454C29.6224 30.974 29.7244 30.53 29.7244 30.122C29.7244 29.846 29.6824 29.648 29.5984 29.528C29.5144 29.396 29.3884 29.33 29.2204 29.33C28.9924 29.33 28.7584 29.492 28.5184 29.816C28.2784 30.14 28.1584 30.548 28.1584 31.04C28.1584 31.292 28.2004 31.598 28.2844 31.958C28.3804 32.318 28.5124 32.6 28.6804 32.804ZM31.4897 40.04C31.0697 40.04 30.7397 39.956 30.4997 39.788C30.2477 39.632 30.1217 39.368 30.1217 38.996C30.1217 38.588 30.2537 38.222 30.5177 37.898C30.7697 37.574 31.1117 37.268 31.5437 36.98C31.9877 36.692 32.4737 36.398 33.0017 36.098C33.5417 35.798 34.0817 35.468 34.6217 35.108C34.6097 34.724 34.4897 34.358 34.2617 34.01C34.0457 33.662 33.6617 33.29 33.1097 32.894C33.5777 32.762 33.9737 32.558 34.2977 32.282C34.6217 31.994 34.8677 31.682 35.0357 31.346C35.2037 30.998 35.2877 30.674 35.2877 30.374C35.2877 30.158 35.2337 29.966 35.1257 29.798C35.0177 29.618 34.8257 29.528 34.5497 29.528C34.1897 29.528 33.8537 29.684 33.5417 29.996C33.2297 30.308 32.9297 30.71 32.6417 31.202C32.3657 31.694 32.0957 32.222 31.8317 32.786L31.4897 32.498C31.7537 31.79 32.0297 31.148 32.3177 30.572C32.6177 29.984 32.9657 29.516 33.3617 29.168C33.7697 28.82 34.2557 28.646 34.8197 28.646C35.3117 28.646 35.7317 28.784 36.0797 29.06C36.4277 29.336 36.6017 29.738 36.6017 30.266C36.6017 30.638 36.5057 31.004 36.3137 31.364C36.1337 31.712 35.8877 32.036 35.5757 32.336C35.2757 32.624 34.9397 32.864 34.5677 33.056C34.8317 33.26 35.0597 33.494 35.2517 33.758C35.4557 34.022 35.6177 34.28 35.7377 34.532C36.1697 34.196 36.5597 33.824 36.9077 33.416C37.2557 33.008 37.5317 32.54 37.7357 32.012L37.9697 32.3C37.7897 32.828 37.5197 33.326 37.1597 33.794C36.8117 34.25 36.3977 34.652 35.9177 35C35.9417 35.084 35.9597 35.168 35.9717 35.252C35.9837 35.348 35.9897 35.462 35.9897 35.594C35.9897 36.122 35.8697 36.644 35.6297 37.16C35.3897 37.688 35.0537 38.168 34.6217 38.6C34.2017 39.032 33.7217 39.38 33.1817 39.644C32.6537 39.908 32.0897 40.04 31.4897 40.04ZM31.2377 39.356C31.4537 39.356 31.7297 39.272 32.0657 39.104C32.4137 38.948 32.7617 38.714 33.1097 38.402C33.4697 38.102 33.7817 37.736 34.0457 37.304C34.3217 36.872 34.5017 36.38 34.5857 35.828C34.1417 36.116 33.6917 36.386 33.2357 36.638C32.7797 36.89 32.3657 37.136 31.9937 37.376C31.6217 37.628 31.3217 37.874 31.0937 38.114C30.8657 38.354 30.7517 38.606 30.7517 38.87C30.7517 39.038 30.7997 39.158 30.8957 39.23C30.9917 39.314 31.1057 39.356 31.2377 39.356ZM38.7447 35.54C38.2167 35.54 37.8207 35.384 37.5567 35.072C37.2927 34.76 37.1607 34.382 37.1607 33.938C37.1607 33.662 37.2087 33.314 37.3047 32.894C37.4007 32.474 37.5327 32.036 37.7007 31.58C37.8807 31.112 38.0847 30.674 38.3127 30.266C38.5407 29.858 38.7867 29.528 39.0507 29.276C39.3147 29.012 39.5787 28.88 39.8427 28.88C39.9867 28.88 40.1127 28.928 40.2207 29.024C40.3287 29.108 40.3827 29.234 40.3827 29.402C40.3827 29.558 40.2867 29.792 40.0947 30.104C39.9147 30.416 39.6987 30.776 39.4467 31.184C39.2067 31.592 38.9907 32.018 38.7987 32.462C38.6187 32.894 38.5287 33.308 38.5287 33.704C38.5287 34.088 38.5947 34.346 38.7267 34.478C38.8707 34.598 39.0747 34.658 39.3387 34.658C39.7467 34.658 40.1907 34.454 40.6707 34.046C41.1507 33.638 41.6487 32.924 42.1647 31.904L42.4347 32.192C42.0147 33.248 41.4807 34.07 40.8327 34.658C40.1847 35.246 39.4887 35.54 38.7447 35.54ZM40.8687 27.422C40.6407 27.422 40.4307 27.368 40.2387 27.26C40.0587 27.14 39.9687 26.96 39.9687 26.72C39.9687 26.432 40.1247 26.186 40.4367 25.982C40.7487 25.778 41.0727 25.676 41.4087 25.676C41.6247 25.676 41.8047 25.724 41.9487 25.82C42.1047 25.916 42.1827 26.09 42.1827 26.342C42.1827 26.594 42.0447 26.84 41.7687 27.08C41.4927 27.308 41.1927 27.422 40.8687 27.422ZM47.7652 35.36C47.2972 35.36 46.9372 35.24 46.6852 35C46.4452 34.772 46.3252 34.478 46.3252 34.118C46.3252 33.878 46.3672 33.626 46.4512 33.362C46.5352 33.086 46.6192 32.81 46.7032 32.534C46.7872 32.258 46.8292 31.994 46.8292 31.742C46.8292 31.478 46.7632 31.298 46.6312 31.202C46.5112 31.094 46.3672 31.04 46.1992 31.04C45.8392 31.04 45.4672 31.19 45.0832 31.49C44.7112 31.778 44.3452 32.144 43.9852 32.588C43.6372 33.032 43.3072 33.494 42.9952 33.974C42.6832 34.454 42.4132 34.886 42.1852 35.27C41.9572 35.27 41.7412 35.228 41.5372 35.144C41.3332 35.072 41.1592 34.94 41.0152 34.748C41.0272 34.688 41.0992 34.508 41.2312 34.208C41.3512 33.896 41.4892 33.53 41.6452 33.11C41.8012 32.678 41.9392 32.228 42.0592 31.76C42.1792 31.292 42.2392 30.866 42.2392 30.482C42.3232 30.386 42.4492 30.29 42.6172 30.194C42.7972 30.098 42.9832 30.05 43.1752 30.05C43.5952 30.05 43.8052 30.23 43.8052 30.59C43.8052 30.734 43.7752 30.95 43.7152 31.238C43.6672 31.514 43.5952 31.832 43.4992 32.192C43.8112 31.772 44.1532 31.376 44.5252 31.004C44.8972 30.632 45.2812 30.332 45.6772 30.104C46.0852 29.864 46.4932 29.744 46.9012 29.744C47.4172 29.744 47.7952 29.918 48.0352 30.266C48.2872 30.614 48.4132 30.998 48.4132 31.418C48.4132 31.778 48.3532 32.114 48.2332 32.426C48.1132 32.738 47.9932 33.032 47.8732 33.308C47.7652 33.584 47.7112 33.854 47.7112 34.118C47.7112 34.31 47.7532 34.448 47.8372 34.532C47.9332 34.604 48.0352 34.64 48.1432 34.64C48.4312 34.64 48.7312 34.502 49.0432 34.226C49.3552 33.95 49.6492 33.602 49.9252 33.182C50.2132 32.75 50.4652 32.318 50.6812 31.886L50.9872 32.138C50.7352 32.726 50.4472 33.266 50.1232 33.758C49.8112 34.238 49.4572 34.628 49.0612 34.928C48.6772 35.216 48.2452 35.36 47.7652 35.36ZM51.035 35.684C50.771 35.684 50.579 35.48 50.459 35.072C50.351 34.664 50.297 34.19 50.297 33.65C50.297 33.098 50.387 32.432 50.567 31.652C50.759 30.872 51.011 30.05 51.323 29.186C51.647 28.322 52.001 27.476 52.385 26.648C52.781 25.82 53.183 25.07 53.591 24.398C54.011 23.714 54.407 23.168 54.779 22.76C55.163 22.352 55.499 22.148 55.787 22.148C56.039 22.148 56.231 22.286 56.363 22.562C56.495 22.838 56.561 23.126 56.561 23.426C56.561 23.75 56.483 24.152 56.327 24.632C56.183 25.1 55.979 25.604 55.715 26.144C55.451 26.684 55.139 27.218 54.779 27.746C54.431 28.262 54.047 28.736 53.627 29.168C53.219 29.6 52.793 29.948 52.349 30.212C52.193 30.62 52.067 31.004 51.971 31.364C51.887 31.712 51.827 32.042 51.791 32.354C51.755 32.666 51.737 32.972 51.737 33.272C51.737 33.332 51.737 33.398 51.737 33.47C51.749 33.53 51.755 33.59 51.755 33.65C51.803 33.578 51.881 33.392 51.989 33.092C52.097 32.792 52.241 32.444 52.421 32.048C52.613 31.64 52.847 31.244 53.123 30.86C53.399 30.464 53.723 30.14 54.095 29.888C54.467 29.624 54.893 29.492 55.373 29.492C55.781 29.492 56.099 29.588 56.327 29.78C56.555 29.96 56.717 30.188 56.813 30.464C56.909 30.728 56.957 30.998 56.957 31.274C56.957 31.658 56.891 32.018 56.759 32.354C56.639 32.69 56.513 33.008 56.381 33.308C56.261 33.596 56.201 33.872 56.201 34.136C56.201 34.352 56.249 34.502 56.345 34.586C56.441 34.67 56.555 34.712 56.687 34.712C56.951 34.712 57.257 34.58 57.605 34.316C57.965 34.052 58.319 33.704 58.667 33.272C59.027 32.828 59.333 32.342 59.585 31.814L59.873 32.12C59.597 32.72 59.273 33.272 58.901 33.776C58.529 34.28 58.121 34.682 57.677 34.982C57.233 35.282 56.753 35.432 56.237 35.432C55.781 35.432 55.433 35.312 55.193 35.072C54.953 34.832 54.833 34.532 54.833 34.172C54.833 33.92 54.875 33.644 54.959 33.344C55.055 33.032 55.145 32.72 55.229 32.408C55.313 32.096 55.355 31.814 55.355 31.562C55.355 31.274 55.289 31.076 55.157 30.968C55.037 30.86 54.887 30.806 54.707 30.806C54.407 30.806 54.137 30.926 53.897 31.166C53.657 31.394 53.441 31.694 53.249 32.066C53.057 32.438 52.877 32.834 52.709 33.254C52.541 33.662 52.373 34.052 52.205 34.424C52.037 34.796 51.857 35.096 51.665 35.324C51.485 35.564 51.275 35.684 51.035 35.684ZM52.727 29.06C53.039 28.784 53.339 28.454 53.627 28.07C53.915 27.686 54.179 27.29 54.419 26.882C54.671 26.462 54.887 26.06 55.067 25.676C55.259 25.28 55.409 24.926 55.517 24.614C55.625 24.302 55.685 24.062 55.697 23.894C55.697 23.882 55.697 23.876 55.697 23.876C55.697 23.864 55.697 23.852 55.697 23.84C55.625 23.84 55.469 23.99 55.229 24.29C55.001 24.578 54.731 24.974 54.419 25.478C54.119 25.97 53.813 26.528 53.501 27.152C53.201 27.776 52.943 28.412 52.727 29.06ZM61.1896 35.792C60.4216 35.792 59.8276 35.582 59.4076 35.162C58.9996 34.754 58.7956 34.238 58.7956 33.614C58.7956 33.086 58.9276 32.528 59.1916 31.94C59.4676 31.34 59.8336 30.782 60.2896 30.266C60.7456 29.738 61.2496 29.312 61.8016 28.988C62.3536 28.664 62.9056 28.502 63.4576 28.502C63.7696 28.502 64.0636 28.586 64.3396 28.754C64.6276 28.91 64.7716 29.228 64.7716 29.708C64.7716 30.164 64.6396 30.59 64.3756 30.986C64.1116 31.382 63.7576 31.736 63.3136 32.048C62.8696 32.36 62.3776 32.618 61.8376 32.822C61.3096 33.014 60.7756 33.14 60.2356 33.2C60.2236 33.248 60.2116 33.302 60.1996 33.362C60.1996 33.41 60.1996 33.494 60.1996 33.614C60.1996 33.674 60.2056 33.782 60.2176 33.938C60.2416 34.082 60.2956 34.238 60.3796 34.406C60.4636 34.574 60.6016 34.718 60.7936 34.838C60.9856 34.958 61.2496 35.018 61.5856 35.018C62.0896 35.018 62.5936 34.88 63.0976 34.604C63.6136 34.316 64.0936 33.938 64.5376 33.47C64.9936 33.002 65.3716 32.48 65.6716 31.904L66.0316 32.192C65.7076 32.912 65.2876 33.542 64.7716 34.082C64.2676 34.622 63.7036 35.042 63.0796 35.342C62.4676 35.642 61.8376 35.792 61.1896 35.792ZM60.4336 32.534C60.7456 32.498 61.0936 32.39 61.4776 32.21C61.8616 32.03 62.2276 31.802 62.5756 31.526C62.9356 31.25 63.2296 30.95 63.4576 30.626C63.6856 30.29 63.7996 29.954 63.7996 29.618C63.7996 29.486 63.7756 29.396 63.7276 29.348C63.6796 29.3 63.6016 29.276 63.4936 29.276C63.2176 29.276 62.9296 29.378 62.6296 29.582C62.3296 29.774 62.0356 30.032 61.7476 30.356C61.4596 30.668 61.2016 31.016 60.9736 31.4C60.7456 31.784 60.5656 32.162 60.4336 32.534ZM66.6763 35.54C66.1483 35.54 65.7523 35.384 65.4883 35.072C65.2243 34.76 65.0923 34.382 65.0923 33.938C65.0923 33.662 65.1403 33.314 65.2363 32.894C65.3323 32.474 65.4643 32.036 65.6323 31.58C65.8123 31.112 66.0163 30.674 66.2443 30.266C66.4723 29.858 66.7183 29.528 66.9823 29.276C67.2463 29.012 67.5103 28.88 67.7743 28.88C67.9183 28.88 68.0443 28.928 68.1523 29.024C68.2603 29.108 68.3143 29.234 68.3143 29.402C68.3143 29.558 68.2183 29.792 68.0263 30.104C67.8463 30.416 67.6303 30.776 67.3783 31.184C67.1383 31.592 66.9223 32.018 66.7303 32.462C66.5503 32.894 66.4603 33.308 66.4603 33.704C66.4603 34.088 66.5263 34.346 66.6583 34.478C66.8023 34.598 67.0063 34.658 67.2703 34.658C67.6783 34.658 68.1223 34.454 68.6023 34.046C69.0823 33.638 69.5803 32.924 70.0963 31.904L70.3663 32.192C69.9463 33.248 69.4123 34.07 68.7643 34.658C68.1163 35.246 67.4203 35.54 66.6763 35.54ZM68.8003 27.422C68.5723 27.422 68.3623 27.368 68.1703 27.26C67.9903 27.14 67.9003 26.96 67.9003 26.72C67.9003 26.432 68.0563 26.186 68.3683 25.982C68.6803 25.778 69.0043 25.676 69.3403 25.676C69.5563 25.676 69.7363 25.724 69.8803 25.82C70.0363 25.916 70.1143 26.09 70.1143 26.342C70.1143 26.594 69.9763 26.84 69.7003 27.08C69.4243 27.308 69.1243 27.422 68.8003 27.422ZM72.9609 35.468C72.5169 35.468 72.1569 35.348 71.8809 35.108C71.6049 34.88 71.4669 34.568 71.4669 34.172C71.4669 33.836 71.5509 33.476 71.7189 33.092C71.8869 32.708 72.0549 32.33 72.2229 31.958C72.4029 31.586 72.4929 31.256 72.4929 30.968C72.4929 30.692 72.4029 30.464 72.2229 30.284C72.0429 30.092 71.8329 29.936 71.5929 29.816C71.3289 30.476 71.0289 31.118 70.6929 31.742C70.3689 32.354 70.1049 32.834 69.9009 33.182L69.6309 32.66C69.7989 32.348 70.0209 31.904 70.2969 31.328C70.5729 30.752 70.8369 30.11 71.0889 29.402C70.9689 29.282 70.9089 29.12 70.9089 28.916C70.9089 28.604 71.0049 28.31 71.1969 28.034C71.3889 27.758 71.5749 27.62 71.7549 27.62C71.8989 27.62 72.0009 27.704 72.0609 27.872C72.1329 28.028 72.1689 28.136 72.1689 28.196C72.1689 28.256 72.1389 28.364 72.0789 28.52C72.0309 28.676 71.9949 28.79 71.9709 28.862C71.9829 28.994 72.0849 29.126 72.2769 29.258C72.4809 29.378 72.7089 29.522 72.9609 29.69C73.2129 29.858 73.4349 30.068 73.6269 30.32C73.8189 30.572 73.9149 30.89 73.9149 31.274C73.9149 31.622 73.8369 31.976 73.6809 32.336C73.5249 32.696 73.3689 33.032 73.2129 33.344C73.0569 33.656 72.9789 33.926 72.9789 34.154C72.9789 34.322 73.0209 34.436 73.1049 34.496C73.2009 34.544 73.3089 34.568 73.4289 34.568C73.7169 34.568 74.0169 34.484 74.3289 34.316C74.6409 34.136 74.9469 33.908 75.2469 33.632C75.5469 33.356 75.8109 33.068 76.0389 32.768C76.2669 32.456 76.4409 32.174 76.5609 31.922L76.9929 32.246C76.7649 32.762 76.4349 33.272 76.0029 33.776C75.5709 34.268 75.0909 34.676 74.5629 35C74.0349 35.312 73.5009 35.468 72.9609 35.468ZM77.1779 35.846C76.7819 35.846 76.4399 35.714 76.1519 35.45C75.8519 35.186 75.7019 34.79 75.7019 34.262C75.7019 33.842 75.7979 33.386 75.9899 32.894C76.1819 32.402 76.4459 31.916 76.7819 31.436C77.1179 30.956 77.5019 30.524 77.9339 30.14C78.3659 29.744 78.8279 29.426 79.3199 29.186C79.8119 28.946 80.3039 28.826 80.7959 28.826C81.3119 28.826 81.7499 28.958 82.1099 29.222C82.4699 29.486 82.6499 29.834 82.6499 30.266C82.6499 30.59 82.5359 30.824 82.3079 30.968C82.0799 31.112 81.8099 31.154 81.4979 31.094C81.5219 30.986 81.5399 30.878 81.5519 30.77C81.5759 30.662 81.5879 30.548 81.5879 30.428C81.5879 30.188 81.5399 29.972 81.4439 29.78C81.3479 29.588 81.1439 29.492 80.8319 29.492C80.4959 29.492 80.1539 29.606 79.8059 29.834C79.4579 30.062 79.1219 30.362 78.7979 30.734C78.4859 31.094 78.2039 31.496 77.9519 31.94C77.6999 32.372 77.5019 32.798 77.3579 33.218C77.2139 33.638 77.1419 34.016 77.1419 34.352C77.1419 34.736 77.2799 34.928 77.5559 34.928C77.8319 34.928 78.1379 34.796 78.4739 34.532C78.8099 34.256 79.1459 33.914 79.4819 33.506C79.8299 33.098 80.1599 32.684 80.4719 32.264C80.7839 31.832 81.0539 31.466 81.2819 31.166C81.3179 31.106 81.3659 31.076 81.4259 31.076C81.4739 31.088 81.5639 31.118 81.6959 31.166C81.8399 31.202 81.9719 31.262 82.0919 31.346C82.2119 31.43 82.2719 31.538 82.2719 31.67C82.2719 31.79 82.2179 31.946 82.1099 32.138C82.0139 32.318 81.8939 32.522 81.7499 32.75C81.6179 32.966 81.4979 33.188 81.3899 33.416C81.2939 33.632 81.2459 33.842 81.2459 34.046C81.2459 34.202 81.2879 34.352 81.3719 34.496C81.4559 34.628 81.5939 34.694 81.7859 34.694C82.0739 34.694 82.4759 34.484 82.9919 34.064C83.5199 33.632 84.0539 32.906 84.5939 31.886L84.9359 32.228C84.6479 32.876 84.2999 33.452 83.8919 33.956C83.4959 34.448 83.0759 34.832 82.6319 35.108C82.1879 35.396 81.7379 35.54 81.2819 35.54C80.7899 35.54 80.4239 35.384 80.1839 35.072C79.9439 34.76 79.8119 34.424 79.7879 34.064C79.7879 34.04 79.7879 34.022 79.7879 34.01C79.7879 33.998 79.7879 33.986 79.7879 33.974C79.3079 34.55 78.8639 35.006 78.4559 35.342C78.0599 35.678 77.6339 35.846 77.1779 35.846ZM43.4158 57.54C43.1878 57.54 42.9538 57.48 42.7138 57.36C42.4858 57.252 42.2938 57.078 42.1378 56.838C41.9698 56.598 41.8858 56.292 41.8858 55.92C41.8858 55.524 41.9818 55.08 42.1738 54.588C42.3658 54.096 42.6238 53.604 42.9478 53.112C43.2838 52.62 43.6678 52.17 44.0998 51.762C44.5438 51.354 45.0118 51.024 45.5038 50.772C45.9958 50.52 46.4938 50.394 46.9978 50.394C47.2738 50.394 47.4898 50.442 47.6458 50.538C47.8018 50.622 47.8798 50.766 47.8798 50.97C47.8798 51.03 47.8678 51.102 47.8438 51.186C47.8198 51.258 47.7598 51.324 47.6638 51.384C47.6158 51.312 47.5318 51.264 47.4118 51.24C47.2918 51.204 47.1658 51.186 47.0338 51.186C46.6378 51.186 46.2598 51.3 45.8998 51.528C45.5398 51.744 45.2098 52.026 44.9098 52.374C44.6098 52.722 44.3458 53.1 44.1178 53.508C43.9018 53.916 43.7338 54.312 43.6138 54.696C43.4938 55.068 43.4338 55.392 43.4338 55.668C43.4338 55.896 43.4818 56.082 43.5778 56.226C43.6738 56.358 43.8178 56.424 44.0098 56.424C44.3338 56.424 44.7178 56.238 45.1618 55.866C45.6178 55.482 46.0798 54.936 46.5478 54.228C47.0278 53.508 47.4598 52.65 47.8438 51.654C48.1078 50.97 48.3838 50.274 48.6718 49.566C48.9598 48.846 49.2478 48.156 49.5358 47.496C49.8238 46.836 50.1058 46.248 50.3818 45.732C50.6698 45.216 50.9398 44.808 51.1918 44.508C51.4558 44.196 51.6958 44.04 51.9118 44.04C52.0438 44.04 52.1578 44.094 52.2538 44.202C52.3618 44.298 52.4158 44.424 52.4158 44.58C52.4158 44.784 52.3138 45.114 52.1098 45.57C51.9178 46.014 51.6658 46.548 51.3538 47.172C51.0538 47.796 50.7238 48.474 50.3638 49.206C50.0158 49.926 49.6858 50.67 49.3738 51.438C49.0738 52.194 48.8218 52.944 48.6178 53.688C48.4258 54.42 48.3298 55.11 48.3298 55.758C48.3298 56.046 48.3538 56.244 48.4018 56.352C48.4618 56.448 48.5578 56.496 48.6898 56.496C48.9538 56.496 49.2478 56.394 49.5718 56.19C49.8958 55.986 50.2258 55.686 50.5618 55.29C50.8978 54.882 51.2038 54.396 51.4798 53.832L51.8218 54.12C51.5578 54.78 51.2218 55.362 50.8138 55.866C50.4058 56.37 49.9678 56.76 49.4998 57.036C49.0318 57.324 48.5698 57.468 48.1138 57.468C47.6218 57.468 47.2798 57.312 47.0878 57C46.8958 56.688 46.7998 56.322 46.7998 55.902C46.7998 55.71 46.8118 55.518 46.8358 55.326C46.8718 55.122 46.9078 54.924 46.9438 54.732C46.5718 55.272 46.1758 55.758 45.7558 56.19C45.3478 56.61 44.9458 56.94 44.5498 57.18C44.1538 57.42 43.7758 57.54 43.4158 57.54ZM53.1036 57.792C52.3356 57.792 51.7416 57.582 51.3216 57.162C50.9136 56.754 50.7096 56.238 50.7096 55.614C50.7096 55.086 50.8416 54.528 51.1056 53.94C51.3816 53.34 51.7476 52.782 52.2036 52.266C52.6596 51.738 53.1636 51.312 53.7156 50.988C54.2676 50.664 54.8196 50.502 55.3716 50.502C55.6836 50.502 55.9776 50.586 56.2536 50.754C56.5416 50.91 56.6856 51.228 56.6856 51.708C56.6856 52.164 56.5536 52.59 56.2896 52.986C56.0256 53.382 55.6716 53.736 55.2276 54.048C54.7836 54.36 54.2916 54.618 53.7516 54.822C53.2236 55.014 52.6896 55.14 52.1496 55.2C52.1376 55.248 52.1256 55.302 52.1136 55.362C52.1136 55.41 52.1136 55.494 52.1136 55.614C52.1136 55.674 52.1196 55.782 52.1316 55.938C52.1556 56.082 52.2096 56.238 52.2936 56.406C52.3776 56.574 52.5156 56.718 52.7076 56.838C52.8996 56.958 53.1636 57.018 53.4996 57.018C54.0036 57.018 54.5076 56.88 55.0116 56.604C55.5276 56.316 56.0076 55.938 56.4516 55.47C56.9076 55.002 57.2856 54.48 57.5856 53.904L57.9456 54.192C57.6216 54.912 57.2016 55.542 56.6856 56.082C56.1816 56.622 55.6176 57.042 54.9936 57.342C54.3816 57.642 53.7516 57.792 53.1036 57.792ZM52.3476 54.534C52.6596 54.498 53.0076 54.39 53.3916 54.21C53.7756 54.03 54.1416 53.802 54.4896 53.526C54.8496 53.25 55.1436 52.95 55.3716 52.626C55.5996 52.29 55.7136 51.954 55.7136 51.618C55.7136 51.486 55.6896 51.396 55.6416 51.348C55.5936 51.3 55.5156 51.276 55.4076 51.276C55.1316 51.276 54.8436 51.378 54.5436 51.582C54.2436 51.774 53.9496 52.032 53.6616 52.356C53.3736 52.668 53.1156 53.016 52.8876 53.4C52.6596 53.784 52.4796 54.162 52.3476 54.534ZM29.079 79.558C28.611 79.558 28.263 79.42 28.035 79.144C27.807 78.868 27.693 78.538 27.693 78.154C27.693 77.878 27.735 77.602 27.819 77.326C27.903 77.05 27.987 76.78 28.071 76.516C28.155 76.24 28.197 75.994 28.197 75.778C28.197 75.574 28.155 75.436 28.071 75.364C27.999 75.28 27.903 75.238 27.783 75.238C27.507 75.238 27.183 75.448 26.811 75.868C26.451 76.288 26.001 76.9 25.461 77.704C25.269 77.992 25.089 78.298 24.921 78.622C24.753 78.934 24.603 79.198 24.471 79.414C24.363 79.414 24.219 79.396 24.039 79.36C23.871 79.324 23.721 79.27 23.589 79.198C23.457 79.138 23.391 79.054 23.391 78.946C23.391 78.838 23.451 78.628 23.571 78.316C23.691 78.004 23.829 77.644 23.985 77.236C24.141 76.816 24.279 76.408 24.399 76.012C24.519 75.604 24.579 75.262 24.579 74.986C24.579 74.818 24.549 74.686 24.489 74.59C24.429 74.494 24.333 74.446 24.201 74.446C23.949 74.446 23.643 74.596 23.283 74.896C22.935 75.196 22.563 75.592 22.167 76.084C21.783 76.564 21.417 77.104 21.069 77.704C20.733 78.292 20.457 78.886 20.241 79.486C20.109 79.486 19.947 79.456 19.755 79.396C19.563 79.348 19.395 79.282 19.251 79.198C19.107 79.126 19.035 79.06 19.035 79C19.035 78.988 19.077 78.82 19.161 78.496C19.245 78.16 19.347 77.746 19.467 77.254C19.587 76.762 19.713 76.258 19.845 75.742C19.977 75.226 20.091 74.776 20.187 74.392C20.223 74.26 20.355 74.146 20.583 74.05C20.811 73.942 21.009 73.888 21.177 73.888C21.345 73.888 21.489 73.942 21.609 74.05C21.729 74.158 21.789 74.302 21.789 74.482C21.789 74.602 21.765 74.776 21.717 75.004C21.669 75.232 21.609 75.49 21.537 75.778C21.789 75.442 22.053 75.112 22.329 74.788C22.617 74.452 22.911 74.152 23.211 73.888C23.523 73.624 23.829 73.414 24.129 73.258C24.441 73.102 24.747 73.024 25.047 73.024C25.491 73.024 25.791 73.186 25.947 73.51C26.103 73.822 26.181 74.164 26.181 74.536C26.181 74.692 26.169 74.848 26.145 75.004C26.121 75.148 26.085 75.298 26.037 75.454C26.001 75.598 25.947 75.772 25.875 75.976C26.103 75.64 26.349 75.334 26.613 75.058C26.889 74.77 27.183 74.542 27.495 74.374C27.807 74.206 28.137 74.122 28.485 74.122C28.953 74.122 29.277 74.266 29.457 74.554C29.637 74.83 29.727 75.136 29.727 75.472C29.727 75.784 29.673 76.114 29.565 76.462C29.469 76.798 29.367 77.122 29.259 77.434C29.163 77.734 29.115 77.992 29.115 78.208C29.115 78.328 29.145 78.442 29.205 78.55C29.265 78.646 29.385 78.694 29.565 78.694C29.889 78.694 30.201 78.544 30.501 78.244C30.801 77.944 31.077 77.578 31.329 77.146C31.593 76.702 31.815 76.282 31.995 75.886L32.301 76.264C32.109 76.756 31.857 77.26 31.545 77.776C31.245 78.28 30.891 78.7 30.483 79.036C30.075 79.384 29.607 79.558 29.079 79.558ZM32.5559 79.846C32.1599 79.846 31.8179 79.714 31.5299 79.45C31.2299 79.186 31.0799 78.79 31.0799 78.262C31.0799 77.842 31.1759 77.386 31.3679 76.894C31.5599 76.402 31.8239 75.916 32.1599 75.436C32.4959 74.956 32.8799 74.524 33.3119 74.14C33.7439 73.744 34.2059 73.426 34.6979 73.186C35.1899 72.946 35.6819 72.826 36.1739 72.826C36.6899 72.826 37.1279 72.958 37.4879 73.222C37.8479 73.486 38.0279 73.834 38.0279 74.266C38.0279 74.59 37.9139 74.824 37.6859 74.968C37.4579 75.112 37.1879 75.154 36.8759 75.094C36.8999 74.986 36.9179 74.878 36.9299 74.77C36.9539 74.662 36.9659 74.548 36.9659 74.428C36.9659 74.188 36.9179 73.972 36.8219 73.78C36.7259 73.588 36.5219 73.492 36.2099 73.492C35.8739 73.492 35.5319 73.606 35.1839 73.834C34.8359 74.062 34.4999 74.362 34.1759 74.734C33.8639 75.094 33.5819 75.496 33.3299 75.94C33.0779 76.372 32.8799 76.798 32.7359 77.218C32.5919 77.638 32.5199 78.016 32.5199 78.352C32.5199 78.736 32.6579 78.928 32.9339 78.928C33.2099 78.928 33.5159 78.796 33.8519 78.532C34.1879 78.256 34.5239 77.914 34.8599 77.506C35.2079 77.098 35.5379 76.684 35.8499 76.264C36.1619 75.832 36.4319 75.466 36.6599 75.166C36.6959 75.106 36.7439 75.076 36.8039 75.076C36.8519 75.088 36.9419 75.118 37.0739 75.166C37.2179 75.202 37.3499 75.262 37.4699 75.346C37.5899 75.43 37.6499 75.538 37.6499 75.67C37.6499 75.79 37.5959 75.946 37.4879 76.138C37.3919 76.318 37.2719 76.522 37.1279 76.75C36.9959 76.966 36.8759 77.188 36.7679 77.416C36.6719 77.632 36.6239 77.842 36.6239 78.046C36.6239 78.202 36.6659 78.352 36.7499 78.496C36.8339 78.628 36.9719 78.694 37.1639 78.694C37.4519 78.694 37.8539 78.484 38.3699 78.064C38.8979 77.632 39.4319 76.906 39.9719 75.886L40.3139 76.228C40.0259 76.876 39.6779 77.452 39.2699 77.956C38.8739 78.448 38.4539 78.832 38.0099 79.108C37.5659 79.396 37.1159 79.54 36.6599 79.54C36.1679 79.54 35.8019 79.384 35.5619 79.072C35.3219 78.76 35.1899 78.424 35.1659 78.064C35.1659 78.04 35.1659 78.022 35.1659 78.01C35.1659 77.998 35.1659 77.986 35.1659 77.974C34.6859 78.55 34.2419 79.006 33.8339 79.342C33.4379 79.678 33.0119 79.846 32.5559 79.846ZM38.8019 71.854C38.4659 71.854 38.1179 71.782 37.7579 71.638C37.3979 71.494 37.0379 71.35 36.6779 71.206C36.3299 71.062 35.9999 70.99 35.6879 70.99C35.4839 70.99 35.2859 71.008 35.0939 71.044C34.9139 71.068 34.7219 71.128 34.5179 71.224C34.6619 70.864 34.8719 70.6 35.1479 70.432C35.4239 70.252 35.7539 70.162 36.1379 70.162C36.4739 70.162 36.8159 70.234 37.1639 70.378C37.5239 70.522 37.8779 70.666 38.2259 70.81C38.5739 70.954 38.9159 71.026 39.2519 71.026C39.6119 71.026 39.9659 70.966 40.3139 70.846C40.1459 71.17 39.9419 71.422 39.7019 71.602C39.4739 71.77 39.1739 71.854 38.8019 71.854ZM40.7339 79.576C40.1939 79.576 39.8219 79.396 39.6179 79.036C39.4259 78.688 39.3299 78.304 39.3299 77.884C39.3299 77.5 39.3899 77.11 39.5099 76.714C39.6299 76.306 39.7919 75.928 39.9959 75.58C40.2119 75.232 40.4459 74.956 40.6979 74.752C40.9619 74.536 41.2259 74.428 41.4899 74.428C41.5739 74.428 41.6699 74.446 41.7779 74.482C41.8979 74.506 41.9819 74.548 42.0299 74.608C41.8859 74.788 41.7359 75.01 41.5799 75.274C41.4359 75.538 41.2979 75.82 41.1659 76.12C41.0459 76.408 40.9499 76.702 40.8779 77.002C40.8059 77.302 40.7699 77.578 40.7699 77.83C40.7699 78.07 40.8119 78.268 40.8959 78.424C40.9919 78.58 41.1539 78.658 41.3819 78.658C41.6099 78.658 41.8799 78.532 42.1919 78.28C42.5159 78.016 42.8219 77.716 43.1099 77.38C42.7259 77.032 42.4499 76.654 42.2819 76.246C42.1139 75.826 42.0299 75.322 42.0299 74.734C42.0299 74.482 42.0899 74.194 42.2099 73.87C42.3419 73.546 42.5459 73.264 42.8219 73.024C43.1099 72.784 43.4939 72.664 43.9739 72.664C44.4899 72.664 44.8499 72.808 45.0539 73.096C45.2699 73.384 45.3779 73.726 45.3779 74.122C45.3779 74.566 45.2579 75.064 45.0179 75.616C44.7899 76.168 44.5139 76.69 44.1899 77.182C44.3339 77.254 44.5019 77.29 44.6939 77.29C44.8739 77.29 45.0899 77.248 45.3419 77.164C45.5939 77.08 45.8399 76.942 46.0799 76.75C46.3199 76.546 46.5119 76.276 46.6559 75.94L46.9799 76.174C46.7159 76.786 46.3619 77.236 45.9179 77.524C45.4859 77.8 45.0599 77.938 44.6399 77.938C44.4839 77.938 44.3279 77.926 44.1719 77.902C44.0159 77.866 43.8719 77.824 43.7399 77.776C43.3319 78.256 42.8639 78.676 42.3359 79.036C41.8079 79.396 41.2739 79.576 40.7339 79.576ZM43.5779 76.804C43.8659 76.384 44.1119 75.934 44.3159 75.454C44.5199 74.974 44.6219 74.53 44.6219 74.122C44.6219 73.846 44.5799 73.648 44.4959 73.528C44.4119 73.396 44.2859 73.33 44.1179 73.33C43.8899 73.33 43.6559 73.492 43.4159 73.816C43.1759 74.14 43.0559 74.548 43.0559 75.04C43.0559 75.292 43.0979 75.598 43.1819 75.958C43.2779 76.318 43.4099 76.6 43.5779 76.804ZM52.9529 80.008C52.3289 80.008 51.8129 79.81 51.4049 79.414C51.0089 79.03 50.8109 78.436 50.8109 77.632C50.8109 77.044 50.9249 76.468 51.1529 75.904C51.3809 75.34 51.6869 74.836 52.0709 74.392C52.4549 73.936 52.8809 73.576 53.3489 73.312C53.8289 73.048 54.3149 72.916 54.8069 72.916C55.3109 72.916 55.6709 73.042 55.8869 73.294C56.1149 73.546 56.2289 73.84 56.2289 74.176C56.2289 74.512 56.1449 74.842 55.9769 75.166C55.8209 75.478 55.6049 75.634 55.3289 75.634C55.1009 75.634 54.9149 75.52 54.7709 75.292C54.8909 75.208 55.0169 75.052 55.1489 74.824C55.2809 74.596 55.3469 74.302 55.3469 73.942C55.3469 73.846 55.3229 73.774 55.2749 73.726C55.2269 73.666 55.1369 73.636 55.0049 73.636C54.7049 73.636 54.3869 73.774 54.0509 74.05C53.7269 74.314 53.4209 74.662 53.1329 75.094C52.8569 75.514 52.6289 75.964 52.4489 76.444C52.2809 76.912 52.1969 77.344 52.1969 77.74C52.1969 78.076 52.2809 78.388 52.4489 78.676C52.6289 78.952 52.9709 79.09 53.4749 79.09C53.9309 79.09 54.4049 78.958 54.8969 78.694C55.3889 78.43 55.8509 78.064 56.2829 77.596C56.7149 77.116 57.0629 76.546 57.3269 75.886L57.6869 76.21C57.3989 76.942 56.9969 77.596 56.4809 78.172C55.9769 78.736 55.4129 79.18 54.7889 79.504C54.1769 79.84 53.5649 80.008 52.9529 80.008ZM57.7411 79.684C57.4771 79.684 57.2851 79.48 57.1651 79.072C57.0571 78.664 57.0031 78.19 57.0031 77.65C57.0031 77.098 57.0931 76.432 57.2731 75.652C57.4651 74.872 57.7171 74.05 58.0291 73.186C58.3531 72.322 58.7071 71.476 59.0911 70.648C59.4871 69.82 59.8891 69.07 60.2971 68.398C60.7171 67.714 61.1131 67.168 61.4851 66.76C61.8691 66.352 62.2051 66.148 62.4931 66.148C62.7451 66.148 62.9371 66.286 63.0691 66.562C63.2011 66.838 63.2671 67.126 63.2671 67.426C63.2671 67.75 63.1891 68.152 63.0331 68.632C62.8891 69.1 62.6851 69.604 62.4211 70.144C62.1571 70.684 61.8451 71.218 61.4851 71.746C61.1371 72.262 60.7531 72.736 60.3331 73.168C59.9251 73.6 59.4991 73.948 59.0551 74.212C58.8991 74.62 58.7731 75.004 58.6771 75.364C58.5931 75.712 58.5331 76.042 58.4971 76.354C58.4611 76.666 58.4431 76.972 58.4431 77.272C58.4431 77.332 58.4431 77.398 58.4431 77.47C58.4551 77.53 58.4611 77.59 58.4611 77.65C58.5091 77.578 58.5871 77.392 58.6951 77.092C58.8031 76.792 58.9471 76.444 59.1271 76.048C59.3191 75.64 59.5531 75.244 59.8291 74.86C60.1051 74.464 60.4291 74.14 60.8011 73.888C61.1731 73.624 61.5991 73.492 62.0791 73.492C62.4871 73.492 62.8051 73.588 63.0331 73.78C63.2611 73.96 63.4231 74.188 63.5191 74.464C63.6151 74.728 63.6631 74.998 63.6631 75.274C63.6631 75.658 63.5971 76.018 63.4651 76.354C63.3451 76.69 63.2191 77.008 63.0871 77.308C62.9671 77.596 62.9071 77.872 62.9071 78.136C62.9071 78.352 62.9551 78.502 63.0511 78.586C63.1471 78.67 63.2611 78.712 63.3931 78.712C63.6571 78.712 63.9631 78.58 64.3111 78.316C64.6711 78.052 65.0251 77.704 65.3731 77.272C65.7331 76.828 66.0391 76.342 66.2911 75.814L66.5791 76.12C66.3031 76.72 65.9791 77.272 65.6071 77.776C65.2351 78.28 64.8271 78.682 64.3831 78.982C63.9391 79.282 63.4591 79.432 62.9431 79.432C62.4871 79.432 62.1391 79.312 61.8991 79.072C61.6591 78.832 61.5391 78.532 61.5391 78.172C61.5391 77.92 61.5811 77.644 61.6651 77.344C61.7611 77.032 61.8511 76.72 61.9351 76.408C62.0191 76.096 62.0611 75.814 62.0611 75.562C62.0611 75.274 61.9951 75.076 61.8631 74.968C61.7431 74.86 61.5931 74.806 61.4131 74.806C61.1131 74.806 60.8431 74.926 60.6031 75.166C60.3631 75.394 60.1471 75.694 59.9551 76.066C59.7631 76.438 59.5831 76.834 59.4151 77.254C59.2471 77.662 59.0791 78.052 58.9111 78.424C58.7431 78.796 58.5631 79.096 58.3711 79.324C58.1911 79.564 57.9811 79.684 57.7411 79.684ZM59.4331 73.06C59.7451 72.784 60.0451 72.454 60.3331 72.07C60.6211 71.686 60.8851 71.29 61.1251 70.882C61.3771 70.462 61.5931 70.06 61.7731 69.676C61.9651 69.28 62.1151 68.926 62.2231 68.614C62.3311 68.302 62.3911 68.062 62.4031 67.894C62.4031 67.882 62.4031 67.876 62.4031 67.876C62.4031 67.864 62.4031 67.852 62.4031 67.84C62.3311 67.84 62.1751 67.99 61.9351 68.29C61.7071 68.578 61.4371 68.974 61.1251 69.478C60.8251 69.97 60.5191 70.528 60.2071 71.152C59.9071 71.776 59.6491 72.412 59.4331 73.06ZM67.8956 79.792C67.1276 79.792 66.5336 79.582 66.1136 79.162C65.7056 78.754 65.5016 78.238 65.5016 77.614C65.5016 77.086 65.6336 76.528 65.8976 75.94C66.1736 75.34 66.5396 74.782 66.9956 74.266C67.4516 73.738 67.9556 73.312 68.5076 72.988C69.0596 72.664 69.6116 72.502 70.1636 72.502C70.4756 72.502 70.7696 72.586 71.0456 72.754C71.3336 72.91 71.4776 73.228 71.4776 73.708C71.4776 74.164 71.3456 74.59 71.0816 74.986C70.8176 75.382 70.4636 75.736 70.0196 76.048C69.5756 76.36 69.0836 76.618 68.5436 76.822C68.0156 77.014 67.4816 77.14 66.9416 77.2C66.9296 77.248 66.9176 77.302 66.9056 77.362C66.9056 77.41 66.9056 77.494 66.9056 77.614C66.9056 77.674 66.9116 77.782 66.9236 77.938C66.9476 78.082 67.0016 78.238 67.0856 78.406C67.1696 78.574 67.3076 78.718 67.4996 78.838C67.6916 78.958 67.9556 79.018 68.2916 79.018C68.7956 79.018 69.2996 78.88 69.8036 78.604C70.3196 78.316 70.7996 77.938 71.2436 77.47C71.6996 77.002 72.0776 76.48 72.3776 75.904L72.7376 76.192C72.4136 76.912 71.9936 77.542 71.4776 78.082C70.9736 78.622 70.4096 79.042 69.7856 79.342C69.1736 79.642 68.5436 79.792 67.8956 79.792ZM67.1396 76.534C67.4516 76.498 67.7996 76.39 68.1836 76.21C68.5676 76.03 68.9336 75.802 69.2816 75.526C69.6416 75.25 69.9356 74.95 70.1636 74.626C70.3916 74.29 70.5056 73.954 70.5056 73.618C70.5056 73.486 70.4816 73.396 70.4336 73.348C70.3856 73.3 70.3076 73.276 70.1996 73.276C69.9236 73.276 69.6356 73.378 69.3356 73.582C69.0356 73.774 68.7416 74.032 68.4536 74.356C68.1656 74.668 67.9076 75.016 67.6796 75.4C67.4516 75.784 67.2716 76.162 67.1396 76.534ZM73.3824 79.54C72.8544 79.54 72.4584 79.384 72.1944 79.072C71.9304 78.76 71.7984 78.382 71.7984 77.938C71.7984 77.662 71.8464 77.314 71.9424 76.894C72.0384 76.474 72.1704 76.036 72.3384 75.58C72.5184 75.112 72.7224 74.674 72.9504 74.266C73.1784 73.858 73.4244 73.528 73.6884 73.276C73.9524 73.012 74.2164 72.88 74.4804 72.88C74.6244 72.88 74.7504 72.928 74.8584 73.024C74.9664 73.108 75.0204 73.234 75.0204 73.402C75.0204 73.558 74.9244 73.792 74.7324 74.104C74.5524 74.416 74.3364 74.776 74.0844 75.184C73.8444 75.592 73.6284 76.018 73.4364 76.462C73.2564 76.894 73.1664 77.308 73.1664 77.704C73.1664 78.088 73.2324 78.346 73.3644 78.478C73.5084 78.598 73.7124 78.658 73.9764 78.658C74.3844 78.658 74.8284 78.454 75.3084 78.046C75.7884 77.638 76.2864 76.924 76.8024 75.904L77.0724 76.192C76.6524 77.248 76.1184 78.07 75.4704 78.658C74.8224 79.246 74.1264 79.54 73.3824 79.54ZM75.5064 71.422C75.2784 71.422 75.0684 71.368 74.8764 71.26C74.6964 71.14 74.6064 70.96 74.6064 70.72C74.6064 70.432 74.7624 70.186 75.0744 69.982C75.3864 69.778 75.7104 69.676 76.0464 69.676C76.2624 69.676 76.4424 69.724 76.5864 69.82C76.7424 69.916 76.8204 70.09 76.8204 70.342C76.8204 70.594 76.6824 70.84 76.4064 71.08C76.1304 71.308 75.8304 71.422 75.5064 71.422ZM77.3449 79.846C76.9489 79.846 76.6069 79.714 76.3189 79.45C76.0189 79.186 75.8689 78.79 75.8689 78.262C75.8689 77.842 75.9649 77.386 76.1569 76.894C76.3489 76.402 76.6129 75.916 76.9489 75.436C77.2849 74.956 77.6689 74.524 78.1009 74.14C78.5329 73.744 78.9949 73.426 79.4869 73.186C79.9789 72.946 80.4709 72.826 80.9629 72.826C81.4789 72.826 81.9169 72.958 82.2769 73.222C82.6369 73.486 82.8169 73.834 82.8169 74.266C82.8169 74.59 82.7029 74.824 82.4749 74.968C82.2469 75.112 81.9769 75.154 81.6649 75.094C81.6889 74.986 81.7069 74.878 81.7189 74.77C81.7429 74.662 81.7549 74.548 81.7549 74.428C81.7549 74.188 81.7069 73.972 81.6109 73.78C81.5149 73.588 81.3109 73.492 80.9989 73.492C80.6629 73.492 80.3209 73.606 79.9729 73.834C79.6249 74.062 79.2889 74.362 78.9649 74.734C78.6529 75.094 78.3709 75.496 78.1189 75.94C77.8669 76.372 77.6689 76.798 77.5249 77.218C77.3809 77.638 77.3089 78.016 77.3089 78.352C77.3089 78.736 77.4469 78.928 77.7229 78.928C77.9989 78.928 78.3049 78.796 78.6409 78.532C78.9769 78.256 79.3129 77.914 79.6489 77.506C79.9969 77.098 80.3269 76.684 80.6389 76.264C80.9509 75.832 81.2209 75.466 81.4489 75.166C81.4849 75.106 81.5329 75.076 81.5929 75.076C81.6409 75.088 81.7309 75.118 81.8629 75.166C82.0069 75.202 82.1389 75.262 82.2589 75.346C82.3789 75.43 82.4389 75.538 82.4389 75.67C82.4389 75.79 82.3849 75.946 82.2769 76.138C82.1809 76.318 82.0609 76.522 81.9169 76.75C81.7849 76.966 81.6649 77.188 81.5569 77.416C81.4609 77.632 81.4129 77.842 81.4129 78.046C81.4129 78.202 81.4549 78.352 81.5389 78.496C81.6229 78.628 81.7609 78.694 81.9529 78.694C82.2409 78.694 82.6429 78.484 83.1589 78.064C83.6869 77.632 84.2209 76.906 84.7609 75.886L85.1029 76.228C84.8149 76.876 84.4669 77.452 84.0589 77.956C83.6629 78.448 83.2429 78.832 82.7989 79.108C82.3549 79.396 81.9049 79.54 81.4489 79.54C80.9569 79.54 80.5909 79.384 80.3509 79.072C80.1109 78.76 79.9789 78.424 79.9549 78.064C79.9549 78.04 79.9549 78.022 79.9549 78.01C79.9549 77.998 79.9549 77.986 79.9549 77.974C79.4749 78.55 79.0309 79.006 78.6229 79.342C78.2269 79.678 77.8009 79.846 77.3449 79.846Z" fill="white"/>
</svg>
