<svg width="70" height="70" viewBox="0 0 70 70" fill="none" xmlns="http://www.w3.org/2000/svg">
<path fill-rule="evenodd" clip-rule="evenodd" d="M53.6754 16.4296C51.2498 13.988 48.3638 12.052 45.1846 10.7338C42.0054 9.41552 38.5962 8.74125 35.1546 8.74999C20.7229 8.74999 8.97458 20.4954 8.96875 34.9329C8.96875 39.5471 10.1733 44.0504 12.4629 48.0229L8.75 61.5883L22.6304 57.9454C26.4699 60.0355 30.7714 61.1314 35.1429 61.1333H35.1546C49.5833 61.1333 61.3317 49.3879 61.3375 34.9504C61.3474 31.5102 60.6754 28.1021 59.3602 24.9231C58.0451 21.7441 56.1129 18.8573 53.6754 16.4296ZM35.1546 56.7146H35.1458C31.2478 56.715 27.4214 55.6662 24.0683 53.6783L23.275 53.2058L15.0383 55.3671L17.2346 47.3375L16.7183 46.515C14.539 43.0454 13.3853 39.0302 13.3904 34.9329C13.3962 22.9337 23.1583 13.1717 35.1633 13.1717C38.0224 13.1653 40.8543 13.7261 43.4952 14.8215C46.1361 15.9169 48.5336 17.5252 50.5487 19.5533C52.5747 21.5718 54.1806 23.9718 55.2734 26.6146C56.3663 29.2574 56.9245 32.0906 56.9158 34.9504C56.91 46.9496 47.1479 56.7146 35.1546 56.7146ZM47.0925 40.4133C46.4362 40.0837 43.2221 38.5029 42.6212 38.2842C42.0233 38.0654 41.5887 37.9575 41.1512 38.6108C40.7137 39.2642 39.4596 40.7371 39.0775 41.1746C38.6954 41.6121 38.3133 41.6646 37.66 41.3379C37.0067 41.0112 34.8979 40.32 32.3983 38.0917C30.4529 36.3562 29.1404 34.2154 28.7583 33.5592C28.3762 32.9029 28.7175 32.55 29.0471 32.2233C29.3417 31.9317 29.7004 31.4592 30.0271 31.0771C30.3537 30.695 30.4617 30.4237 30.6804 29.9862C30.8992 29.5487 30.7912 29.1667 30.625 28.84C30.4617 28.5104 29.1521 25.2904 28.6067 23.9808C28.0787 22.7121 27.5392 22.8812 27.1367 22.8637C26.7198 22.8467 26.3026 22.8389 25.8854 22.8404C25.5537 22.8489 25.2272 22.9258 24.9266 23.0663C24.626 23.2068 24.3576 23.408 24.1383 23.6571C23.5375 24.3133 21.8488 25.8942 21.8488 29.1142C21.8488 32.3342 24.1937 35.4462 24.5204 35.8837C24.8471 36.3212 29.1346 42.9275 35.6971 45.7625C37.2604 46.4362 38.4796 46.8387 39.4275 47.1421C40.9937 47.6408 42.42 47.5679 43.5487 47.4017C44.8058 47.215 47.4192 45.8208 47.9646 44.2925C48.51 42.7642 48.51 41.4546 48.3467 41.1804C48.1833 40.9062 47.7429 40.74 47.0925 40.4133Z" fill="black"/>
</svg>
